<svg width="25" height="24" viewBox="0 0 25 24" fill="none" xmlns="http://www.w3.org/2000/svg">
<path fill-rule="evenodd" clip-rule="evenodd" d="M15.6345 18.9111V15.0889H19.6069L19.6079 18.9111H15.6345ZM19.6069 13.1777H15.6345C14.5391 13.1777 13.6483 14.0349 13.6483 15.0889V18.9111C13.6483 19.9651 14.5391 20.8222 15.6345 20.8222H19.6069C20.7023 20.8222 21.5931 19.9651 21.5931 18.9111V15.0889C21.5931 14.0349 20.7023 13.1777 19.6069 13.1777ZM5.70343 18.9111V15.0889H9.67584L9.67684 18.9111H5.70343ZM9.67584 13.1777H5.70343C4.60804 13.1777 3.71722 14.0349 3.71722 15.0889V18.9111C3.71722 19.9651 4.60804 20.8222 5.70343 20.8222H9.67584C10.7712 20.8222 11.6621 19.9651 11.6621 18.9111V15.0889C11.6621 14.0349 10.7712 13.1777 9.67584 13.1777ZM15.6345 9.35553V5.5333H19.6069L19.6079 9.35553H15.6345ZM19.6069 3.62219H15.6345C14.5391 3.62219 13.6483 4.47933 13.6483 5.5333V9.35553C13.6483 10.4095 14.5391 11.2666 15.6345 11.2666H19.6069C20.7023 11.2666 21.5931 10.4095 21.5931 9.35553V5.5333C21.5931 4.47933 20.7023 3.62219 19.6069 3.62219ZM5.70343 9.35553V5.5333H9.67584L9.67684 9.35553H5.70343ZM9.67584 3.62219H5.70343C4.60804 3.62219 3.71722 4.47933 3.71722 5.5333V9.35553C3.71722 10.4095 4.60804 11.2666 5.70343 11.2666H9.67584C10.7712 11.2666 11.6621 10.4095 11.6621 9.35553V5.5333C11.6621 4.47933 10.7712 3.62219 9.67584 3.62219Z" fill="url(#paint0_angular_15_65)"/>
<mask id="mask0_15_65" style="mask-type:luminance" maskUnits="userSpaceOnUse" x="3" y="3" width="19" height="18">
<path fill-rule="evenodd" clip-rule="evenodd" d="M15.6345 18.9111V15.0889H19.6069L19.6079 18.9111H15.6345ZM19.6069 13.1777H15.6345C14.5391 13.1777 13.6483 14.0349 13.6483 15.0889V18.9111C13.6483 19.9651 14.5391 20.8222 15.6345 20.8222H19.6069C20.7023 20.8222 21.5931 19.9651 21.5931 18.9111V15.0889C21.5931 14.0349 20.7023 13.1777 19.6069 13.1777ZM5.70343 18.9111V15.0889H9.67584L9.67684 18.9111H5.70343ZM9.67584 13.1777H5.70343C4.60804 13.1777 3.71722 14.0349 3.71722 15.0889V18.9111C3.71722 19.9651 4.60804 20.8222 5.70343 20.8222H9.67584C10.7712 20.8222 11.6621 19.9651 11.6621 18.9111V15.0889C11.6621 14.0349 10.7712 13.1777 9.67584 13.1777ZM15.6345 9.35553V5.5333H19.6069L19.6079 9.35553H15.6345ZM19.6069 3.62219H15.6345C14.5391 3.62219 13.6483 4.47933 13.6483 5.5333V9.35553C13.6483 10.4095 14.5391 11.2666 15.6345 11.2666H19.6069C20.7023 11.2666 21.5931 10.4095 21.5931 9.35553V5.5333C21.5931 4.47933 20.7023 3.62219 19.6069 3.62219ZM5.70343 9.35553V5.5333H9.67584L9.67684 9.35553H5.70343ZM9.67584 3.62219H5.70343C4.60804 3.62219 3.71722 4.47933 3.71722 5.5333V9.35553C3.71722 10.4095 4.60804 11.2666 5.70343 11.2666H9.67584C10.7712 11.2666 11.6621 10.4095 11.6621 9.35553V5.5333C11.6621 4.47933 10.7712 3.62219 9.67584 3.62219Z" fill="white"/>
</mask>
<g mask="url(#mask0_15_65)">
<rect x="0.737915" y="0.755554" width="23.8345" height="22.9333" fill="#707C97"/>
</g>
<defs>
<radialGradient id="paint0_angular_15_65" cx="0" cy="0" r="1" gradientUnits="userSpaceOnUse" gradientTransform="translate(12.6552 12.2222) rotate(90) scale(8.6 8.93793)">
<stop/>
<stop offset="1" stop-color="#231F20" stop-opacity="0"/>
</radialGradient>
</defs>
</svg>
