<svg width="33" height="32" viewBox="0 0 33 32" fill="none" xmlns="http://www.w3.org/2000/svg">
<path d="M32.5 16C32.5 7.16344 25.3366 0 16.5 0C7.66344 0 0.5 7.16344 0.5 16C0.5 24.8366 7.66344 32 16.5 32C25.3366 32 32.5 24.8366 32.5 16Z" fill="white"/>
<path fill-rule="evenodd" clip-rule="evenodd" d="M24.3299 16.1818C24.3299 15.6146 24.279 15.0691 24.1845 14.5455H16.6499V17.64H20.9554C20.7699 18.64 20.2063 19.4873 19.359 20.0546V22.0619H21.9445C23.4572 20.6691 24.3299 18.6182 24.3299 16.1818Z" fill="#4285F4"/>
<path fill-rule="evenodd" clip-rule="evenodd" d="M16.6496 24C18.8096 24 20.6205 23.2836 21.9442 22.0618L19.3587 20.0545C18.6423 20.5345 17.726 20.8181 16.6496 20.8181C14.566 20.8181 12.8023 19.4109 12.1732 17.52H9.50049V19.5927C10.8169 22.2072 13.5223 24 16.6496 24Z" fill="#34A853"/>
<path fill-rule="evenodd" clip-rule="evenodd" d="M12.1735 17.52C12.0135 17.04 11.9226 16.5272 11.9226 16C11.9226 15.4727 12.0135 14.96 12.1735 14.48V12.4072H9.50081C8.95899 13.4872 8.6499 14.709 8.6499 16C8.6499 17.2909 8.95899 18.5127 9.50081 19.5927L12.1735 17.52Z" fill="#FBBC05"/>
<path fill-rule="evenodd" clip-rule="evenodd" d="M16.6496 11.1818C17.8241 11.1818 18.8787 11.5855 19.7078 12.3782L22.0023 10.0836C20.6169 8.79273 18.806 8 16.6496 8C13.5223 8 10.8169 9.79273 9.50049 12.4073L12.1732 14.48C12.8023 12.5891 14.566 11.1818 16.6496 11.1818Z" fill="#EA4335"/>
</svg>
