<svg width="25" height="24" viewBox="0 0 25 24" fill="none" xmlns="http://www.w3.org/2000/svg">
<path fill-rule="evenodd" clip-rule="evenodd" d="M13.6482 11.6666C13.6482 12.1951 13.2033 12.6222 12.6551 12.6222C12.1069 12.6222 11.662 12.1951 11.662 11.6666V2.11107C11.662 1.58265 12.1069 1.15552 12.6551 1.15552C13.2033 1.15552 13.6482 1.58265 13.6482 2.11107V11.6666ZM15.8717 3.58387C16.123 3.11469 16.7228 2.93218 17.2094 3.17298C20.5254 4.82323 22.5861 8.07689 22.5861 11.6669C22.5861 16.9349 18.131 21.2225 12.655 21.2225C7.17906 21.2225 2.724 16.9349 2.724 11.6669C2.724 8.07689 4.78469 4.82323 8.10165 3.17298C8.58728 2.93123 9.18712 3.11374 9.43936 3.58387C9.69161 4.05209 9.49994 4.62829 9.01332 4.871C6.35876 6.19063 4.71021 8.79452 4.71021 11.6669C4.71021 15.8819 8.27445 19.3114 12.655 19.3114C17.0356 19.3114 20.5999 15.8819 20.5999 11.6669C20.5999 8.79452 18.9513 6.19063 16.2977 4.871C15.8101 4.62829 15.6194 4.05209 15.8717 3.58387Z" fill="#231F20"/>
<mask id="mask0_15_175" style="mask-type:luminance" maskUnits="userSpaceOnUse" x="2" y="1" width="21" height="21">
<path fill-rule="evenodd" clip-rule="evenodd" d="M13.6482 11.6666C13.6482 12.1951 13.2033 12.6222 12.6551 12.6222C12.1069 12.6222 11.662 12.1951 11.662 11.6666V2.11107C11.662 1.58265 12.1069 1.15552 12.6551 1.15552C13.2033 1.15552 13.6482 1.58265 13.6482 2.11107V11.6666ZM15.8717 3.58387C16.123 3.11469 16.7228 2.93218 17.2094 3.17298C20.5254 4.82323 22.5861 8.07689 22.5861 11.6669C22.5861 16.9349 18.131 21.2225 12.655 21.2225C7.17906 21.2225 2.724 16.9349 2.724 11.6669C2.724 8.07689 4.78469 4.82323 8.10165 3.17298C8.58728 2.93123 9.18712 3.11374 9.43936 3.58387C9.69161 4.05209 9.49994 4.62829 9.01332 4.871C6.35876 6.19063 4.71021 8.79452 4.71021 11.6669C4.71021 15.8819 8.27445 19.3114 12.655 19.3114C17.0356 19.3114 20.5999 15.8819 20.5999 11.6669C20.5999 8.79452 18.9513 6.19063 16.2977 4.871C15.8101 4.62829 15.6194 4.05209 15.8717 3.58387Z" fill="white"/>
</mask>
<g mask="url(#mask0_15_175)">
<rect x="0.737915" y="0.199951" width="23.8345" height="22.9333" fill="#707C97"/>
</g>
</svg>
