<svg width="25" height="24" viewBox="0 0 25 24" fill="none" xmlns="http://www.w3.org/2000/svg">
<path fill-rule="evenodd" clip-rule="evenodd" d="M14.6414 6.77773C14.6414 5.72375 13.7505 4.86662 12.6552 4.86662C11.5598 4.86662 10.6689 5.72375 10.6689 6.77773C10.6689 7.83171 11.5598 8.68884 12.6552 8.68884C13.7505 8.68884 14.6414 7.83171 14.6414 6.77773ZM16.6276 6.77773C16.6276 8.88568 14.8459 10.5999 12.6552 10.5999C10.4644 10.5999 8.68274 8.88568 8.68274 6.77773C8.68274 4.66977 10.4644 2.95551 12.6552 2.95551C14.8459 2.95551 16.6276 4.66977 16.6276 6.77773ZM5.70343 19.1999C5.70343 15.5115 8.82277 12.5111 12.6552 12.5111C16.4875 12.5111 19.6069 15.5115 19.6069 19.1999C19.6069 19.7274 19.163 20.1555 18.6138 20.1555C18.0646 20.1555 17.6207 19.7274 17.6207 19.1999C17.6207 16.5655 15.3931 14.4222 12.6552 14.4222C9.91717 14.4222 7.68964 16.5655 7.68964 19.1999C7.68964 19.7274 7.24572 20.1555 6.69653 20.1555C6.14735 20.1555 5.70343 19.7274 5.70343 19.1999Z" fill="#231F20"/>
<mask id="mask0_15_109" style="mask-type:luminance" maskUnits="userSpaceOnUse" x="5" y="2" width="15" height="19">
<path fill-rule="evenodd" clip-rule="evenodd" d="M14.6414 6.77773C14.6414 5.72375 13.7505 4.86662 12.6552 4.86662C11.5598 4.86662 10.6689 5.72375 10.6689 6.77773C10.6689 7.83171 11.5598 8.68884 12.6552 8.68884C13.7505 8.68884 14.6414 7.83171 14.6414 6.77773ZM16.6276 6.77773C16.6276 8.88568 14.8459 10.5999 12.6552 10.5999C10.4644 10.5999 8.68274 8.88568 8.68274 6.77773C8.68274 4.66977 10.4644 2.95551 12.6552 2.95551C14.8459 2.95551 16.6276 4.66977 16.6276 6.77773ZM5.70343 19.1999C5.70343 15.5115 8.82277 12.5111 12.6552 12.5111C16.4875 12.5111 19.6069 15.5115 19.6069 19.1999C19.6069 19.7274 19.163 20.1555 18.6138 20.1555C18.0646 20.1555 17.6207 19.7274 17.6207 19.1999C17.6207 16.5655 15.3931 14.4222 12.6552 14.4222C9.91717 14.4222 7.68964 16.5655 7.68964 19.1999C7.68964 19.7274 7.24572 20.1555 6.69653 20.1555C6.14735 20.1555 5.70343 19.7274 5.70343 19.1999Z" fill="white"/>
</mask>
<g mask="url(#mask0_15_109)">
<rect x="0.737915" y="0.0888672" width="23.8345" height="22.9333" fill="#707C97"/>
</g>
</svg>
